# xmcd
# 
# Track frame offsets:
#     150
#     14755
#     33227
# 
# Disc length: 635
# 
# Revision: 3
# Processed by: cddbd v1.5.2PL0 Copyright (c) Steve Scherf et al.
# Submitted via: fre:ac v1.0.17
# 
DISCID=1d027903
DTITLE=筋肉少女帯 - 君よ!俺で変われ!
DYEAR=1993
DGENRE=Hard Rock
TTITLE0=君よ!俺で変われ!
TTITLE1=ゴーゴー蟲娘
TTITLE2=君よ!俺で変われ!(Instrumental Version)
EXTD=
EXTT0=
EXTT1=
EXTT2=
PLAYORDER=
